<?xml version="1.0" encoding="UTF-8"?>
<svg shape-rendering="crispEdges" version="1.1" viewBox="0 0 24 24" xmlns="http://www.w3.org/2000/svg">
  <g transform="translate(12)" shape-rendering="crispEdges">
    <path d="m0 12v-8h1v-2h1v-1h2v-1h3v1h2v1h2v2h1v8h-2v-1h-2v1h-4v-1h-2v1h-2" fill="#ddd"/>
    <path d="m3 3v3h3v-3zm4 0v3h3v-3zm-4 6h-1v1h1v-2h1v1h-1m2 0h-1v1h1v-2h1v1h-1m2 0h-1v1h1v-2h1v1h-1m2 0h-1v1h1v-2h1v1h-1m2 0h-1v1h1z" fill="#d00"/>
  </g>
  <g>
    <path d="m0 12v-8h1v-2h1v-1h2v-1h3v1h2v1h2v2h1v8h-1v-1h-2v1h-2v-1h-2v1h-2v-1h-2v1h-1" fill="#ddd"/>
    <path d="m3 3v3h3v-3zm4 0v3h3v-3zm-4 6h-1v1h1v-2h1v1h-1m2 0h-1v1h1v-2h1v1h-1m2 0h-1v1h1v-2h1v1h-1m2 0h-1v1h1v-2h1v1h-1m2 0h-1v1h1z" fill="#d00"/>
  </g>
  <g transform="translate(0,12)" shape-rendering="crispEdges">
    <g transform="translate(12)" shape-rendering="crispEdges">
      <path d="m0 12v-8h1v-2h1v-1h2v-1h3v1h2v1h2v2h1v8h-2v-1h-2v1h-4v-1h-2v1h-2" fill="#2121ff"/>
      <path d="m3 3v3h3v-3zm4 0v3h3v-3zm-4 6h-1v1h1v-2h1v1h-1m2 0h-1v1h1v-2h1v1h-1m2 0h-1v1h1v-2h1v1h-1m2 0h-1v1h1v-2h1v1h-1m2 0h-1v1h1z" fill="#ffb5ff"/>
    </g>
    <path d="m0 12v-8h1v-2h1v-1h2v-1h3v1h2v1h2v2h1v8h-1v-1h-2v1h-2v-1h-2v1h-2v-1h-2v1h-1" fill="#2121ff"/>
    <path d="m3 3v3h3v-3zm4 0v3h3v-3zm-4 6h-1v1h1v-2h1v1h-1m2 0h-1v1h1v-2h1v1h-1m2 0h-1v1h1v-2h1v1h-1m2 0h-1v1h1v-2h1v1h-1m2 0h-1v1h1z" fill="#ffb5ff"/>
  </g>
  <view id="blue_1" viewBox="0 12 12 12"/>
  <view id="blue_2" viewBox="12 12 12 12"/>
  <view id="gray_1" viewBox="0 0 12 12"/>
  <view id="gray_2" viewBox="12 0 12 12"/>
</svg>
